<svg xmlns="http://www.w3.org/2000/svg" xmlns:xlink="http://www.w3.org/1999/xlink" width="256" height="256" viewBox="0 0 256 256"><defs><path id="a" d="M0 0h256v256H0z"/></defs><clipPath id="b"><use xlink:href="#a" overflow="visible"/></clipPath><g clip-path="url(#b)"><path d="M0 0h256v256H0V0z" fill="none"/><path fill="#FFF" d="M-4.414 0h256v255.977h-256V0z"/><path d="M3.736 4.249H251.58v248.399H3.736V4.249z" fill="none"/><path fill="none" stroke="#000" stroke-width="2" stroke-linejoin="round" stroke-miterlimit="10" d="M3.736 4.249H251.58v248.399H3.736V4.249z"/><path fill="#FFF" d="M207.988 29.833c0-6.162 5.125-11.156 11.445-11.156 3.035 0 5.946 1.175 8.094 3.268 2.146 2.092 3.353 4.93 3.353 7.889 0 6.161-5.124 11.156-11.446 11.156-6.321-.001-11.446-4.996-11.446-11.157z"/><path fill="none" stroke="#000" stroke-width="2" stroke-linejoin="round" stroke-miterlimit="10" d="M207.988 29.833c0-6.162 5.125-11.156 11.445-11.156 3.035 0 5.946 1.175 8.094 3.268 2.146 2.092 3.353 4.93 3.353 7.889 0 6.161-5.124 11.156-11.446 11.156-6.321-.001-11.446-4.996-11.446-11.157z"/></g><path fill="#FFF" stroke="#000" stroke-miterlimit="10" d="M38.482 38.211c0-4.762-3.86-8.622-8.623-8.622-4.762 0-8.621 3.86-8.621 8.622 0 3.459 2.041 6.435 4.982 7.808v83.813h7.28V46.02c2.939-1.374 4.982-4.35 4.982-7.809z"/><g stroke="#000" stroke-miterlimit="10"><path fill="#FFF" d="M58.833 60.5h150.333v150.333H58.833z"/><path fill="none" stroke-width="4" d="M58.833 104.5h150.334m-150.334 56h150.334"/><path fill="#FFF" d="M76.5 122.833h22.333v22.333H76.5z"/><circle fill="#FFF" cx="136.167" cy="134" r="11.333"/><path fill="#FFF" d="M184.834 121.375l2.834 8.723h9.173l-7.421 5.391 2.834 8.723-7.42-5.391-7.42 5.391 2.834-8.723-7.421-5.391H182z"/><path fill="none" d="M111.167 156.167V109.5m50 46.627V109.46"/></g><path fill="none" stroke="#000" stroke-width="1.2936" stroke-miterlimit="10" d="M76.486 21.167h119.36v20.667H76.486zm0 202.667h119.36V244.5H76.486z"/><text font-size="12" x="131.14745" y="36.5" font-family="MyriadPro-Regular">...</text><text font-size="12" x="119.9619" y="238.16701" font-family="MyriadPro-Regular">KEEP</text></svg>